<?xml version="1.0" standalone="no"?>
<!DOCTYPE svg PUBLIC "-//W3C//DTD SVG 20010904//EN"
 "http://www.w3.org/TR/2001/REC-SVG-20010904/DTD/svg10.dtd">
<svg version="1.0" xmlns="http://www.w3.org/2000/svg"
 width="682.000000pt" height="682.000000pt" viewBox="0 0 682.000000 682.000000"
 preserveAspectRatio="xMidYMid meet">
<metadata>
Created by potrace 1.14, written by Peter Selinger 2001-2017
</metadata>
<g transform="translate(0.000000,682.000000) scale(0.100000,-0.100000)"
fill="#000000" stroke="none">
<path d="M2282 6108 c-45 -97 -182 -425 -182 -436 0 -7 -4 -12 -8 -12 -5 0 -9
-6 -9 -12 0 -7 -12 -40 -28 -73 -15 -33 -31 -69 -35 -80 -4 -11 -15 -38 -25
-60 -9 -22 -49 -114 -87 -205 -39 -91 -78 -183 -88 -205 -10 -22 -48 -112 -85
-200 -37 -88 -76 -180 -87 -204 -10 -24 -28 -67 -39 -95 -11 -28 -27 -64 -34
-81 -27 -58 -157 -360 -159 -370 -1 -5 -9 -26 -18 -45 -8 -19 -48 -111 -88
-205 -40 -93 -80 -188 -90 -210 -42 -98 -145 -340 -145 -345 -1 -3 -11 -27
-24 -55 -12 -27 -39 -88 -58 -135 -19 -47 -40 -91 -45 -97 -6 -7 -8 -13 -5
-13 3 0 -10 -35 -30 -77 -19 -43 -41 -94 -48 -113 -12 -34 -22 -58 -83 -192
-17 -38 -29 -68 -27 -68 3 0 -4 -17 -14 -37 -11 -21 -26 -54 -34 -73 -8 -19
-24 -56 -36 -82 -11 -26 -21 -50 -21 -53 0 -2 -11 -28 -24 -57 -13 -29 -61
-141 -106 -248 -45 -107 -93 -219 -106 -248 -13 -29 -24 -56 -24 -59 0 -4 -9
-25 -19 -47 -17 -35 -40 -89 -46 -106 -1 -3 -6 -16 -12 -30 -199 -466 -303
-710 -303 -712 0 -2 355 -4 789 -4 l788 0 37 77 c20 42 36 79 36 82 0 3 18 43
39 89 21 46 86 189 144 318 58 129 117 262 132 295 54 119 59 130 61 135 0 3
13 32 29 65 15 33 39 87 54 120 14 33 32 69 39 80 11 18 13 18 24 4 12 -14
129 -145 188 -209 14 -15 54 -60 90 -100 36 -40 76 -85 90 -100 44 -48 174
-192 210 -233 19 -22 48 -54 63 -70 16 -17 56 -62 90 -100 34 -39 78 -86 97
-107 19 -20 60 -65 90 -100 30 -35 73 -82 95 -106 22 -23 63 -68 90 -100 28
-31 68 -77 91 -100 l41 -43 50 57 c28 31 68 76 89 99 22 23 59 65 84 93 25 28
61 68 80 89 19 21 67 73 105 116 39 43 75 83 80 89 6 6 53 58 104 116 52 58
131 145 175 194 44 49 89 98 99 110 10 11 51 57 90 100 40 43 79 87 88 98 148
169 200 221 209 211 4 -4 21 -39 38 -78 29 -70 173 -391 230 -515 16 -36 55
-123 87 -195 31 -71 70 -156 86 -188 15 -31 28 -58 27 -60 0 -1 15 -37 35 -80
20 -42 41 -93 48 -112 7 -19 15 -36 19 -36 3 -1 359 -2 792 -3 786 -2 788 -1
782 19 -4 11 -20 49 -36 85 -16 36 -33 74 -38 85 -4 11 -15 36 -23 55 -8 19
-58 139 -112 265 -53 127 -104 248 -114 270 -10 22 -42 96 -71 165 -28 69 -63
149 -76 178 -13 29 -24 55 -24 58 0 3 -11 30 -25 60 -14 30 -37 82 -51 117
-14 34 -32 76 -39 92 -7 17 -25 59 -40 95 -15 36 -35 83 -45 105 -10 22 -30
69 -44 105 -15 36 -33 79 -40 95 -8 17 -26 59 -41 95 -15 36 -35 81 -43 100
-9 19 -17 40 -18 45 -2 6 -27 66 -57 135 -30 69 -80 186 -112 260 -31 74 -63
149 -70 165 -7 17 -32 75 -55 130 -24 55 -50 118 -60 140 -10 22 -30 69 -45
105 -14 36 -38 90 -52 120 -14 30 -26 60 -28 65 -1 6 -10 28 -20 50 -9 22 -48
114 -87 205 -38 91 -76 179 -83 195 -23 55 -42 99 -70 165 -15 36 -38 89 -51
118 -13 29 -24 54 -24 56 0 2 -8 21 -17 42 -9 22 -17 41 -18 44 0 3 -9 20 -18
38 -10 17 -15 32 -11 32 4 0 2 6 -4 13 -5 6 -33 68 -62 137 -28 69 -58 138
-66 154 -8 16 -14 35 -14 43 0 7 -4 13 -8 13 -5 0 -9 6 -9 13 0 6 -12 39 -27
72 -15 33 -31 69 -35 80 -12 30 -57 134 -81 190 -25 55 -43 97 -45 105 -1 3
-9 22 -18 44 -9 21 -17 40 -17 42 0 2 -12 29 -26 61 -14 32 -32 72 -39 88 -7
17 -25 56 -39 89 -14 32 -26 65 -26 72 0 12 -175 14 -1119 14 l-1119 0 -20
-42z m1148 -1193 c0 -7 9 -30 20 -52 10 -21 31 -66 45 -100 14 -35 37 -89 51
-120 30 -69 44 -101 55 -128 9 -22 41 -97 72 -165 11 -25 21 -50 22 -55 2 -6
17 -41 34 -77 17 -37 40 -90 51 -119 12 -29 30 -73 42 -98 11 -25 26 -59 34
-76 7 -16 56 -131 109 -255 53 -124 104 -243 115 -265 10 -22 28 -64 40 -94
l21 -54 -46 -66 c-25 -36 -102 -145 -170 -241 -152 -214 -118 -167 -291 -410
-80 -113 -152 -214 -160 -225 -8 -11 -25 -35 -38 -53 l-24 -33 -20 33 c-12 18
-37 56 -57 83 -20 28 -44 61 -53 75 -9 14 -22 32 -29 40 -7 8 -54 74 -105 147
-51 73 -142 202 -203 288 -60 86 -120 169 -132 183 -13 15 -23 32 -23 39 0 6
-4 13 -8 15 -5 2 -23 26 -42 53 -18 28 -38 53 -44 57 -10 7 39 148 56 159 6 3
9 8 8 10 -1 2 4 18 11 34 7 17 13 35 14 40 2 6 12 31 23 55 11 25 34 75 50
113 17 37 28 67 25 67 -3 0 -1 6 5 13 5 6 38 77 72 157 34 80 71 163 80 185
10 22 28 65 40 95 12 30 33 78 45 105 13 28 42 95 65 150 23 55 53 123 66 151
13 28 24 54 24 57 0 3 13 34 29 69 16 35 46 102 66 150 33 78 55 103 55 63z"/>
</g>
</svg>
